# xmcd
#
# Track frame offsets: 
#        150
#        16446
#        33690
#        47969
#        63993
#        84026
#        101655
#        120064
#        138435
#        156111
#        175269
#        195763
#        212092
#
# Disc length: 3042 seconds
#
# Revision: 3
# Processed by: cddbd v1.5.2PL0 Copyright (c) Steve Scherf et al.
# Submitted via: ExactAudioCopy v0.95b4
#
DISCID=a10be00d
DTITLE=Presuntos Implicados - Version Original
DYEAR=1999
DGENRE=Latin
TTITLE0=Esta Tarde Vi Llover
TTITLE1=La Felicidad
TTITLE2=Te Recuerdo Amanda
TTITLE3=Esperare
TTITLE4=Samurai
TTITLE5=Canciones Y Momentos
TTITLE6=Hazme La Noche
TTITLE7=Por Querer
TTITLE8=Nadie Como Tu
TTITLE9=Vereda Tropical
TTITLE10=Hasta El Fin Del Amor
TTITLE11=Pecado
TTITLE12=Esperare (Con Armando Manzanero)
EXTD=YEAR: 1999
EXTT0=
EXTT1=
EXTT2=
EXTT3=
EXTT4=
EXTT5=
EXTT6=
EXTT7=
EXTT8=
EXTT9=
EXTT10=
EXTT11=
EXTT12=
PLAYORDER=
